<svg width="22" height="20" viewBox="0 0 22 20" fill="none" xmlns="http://www.w3.org/2000/svg">
<path d="M10.1718 17.4998C14.7958 17.4998 18.5443 13.9554 18.5443 9.58317C18.5443 5.21092 14.7958 1.6665 10.1718 1.6665C5.5478 1.6665 1.79932 5.21092 1.79932 9.58317C1.79932 13.9554 5.5478 17.4998 10.1718 17.4998Z" fill="#52555A"/>
<path d="M18.8086 18.3335C18.65 18.3335 18.4914 18.2751 18.3768 18.1668L16.7375 16.6168C16.4996 16.3918 16.4996 16.0251 16.7375 15.7918C16.9755 15.5668 17.3633 15.5668 17.61 15.7918L19.2493 17.3418C19.4872 17.5668 19.4872 17.9335 19.2493 18.1668C19.1259 18.2751 18.9673 18.3335 18.8086 18.3335Z" fill="#52555A"/>
</svg>
